<svg width="559" height="252" viewBox="0 0 559 252" fill="none" xmlns="http://www.w3.org/2000/svg">
<path d="M53.4298 198.58C56.7847 199.189 59.6304 200.983 61.9669 203.964C64.3034 206.944 65.4717 210.32 65.4717 214.092C65.4717 217.316 64.6329 220.236 62.9555 222.852C61.3379 225.406 58.9714 227.444 55.8561 228.965C52.7408 230.425 49.1162 231.155 44.9825 231.155H20V167.739H43.8142C48.0678 167.739 51.7223 168.469 54.7777 169.929C57.8331 171.389 60.1397 173.366 61.6973 175.86C63.255 178.293 64.0338 181.031 64.0338 184.072C64.0338 187.722 63.0753 190.764 61.1582 193.197C59.241 195.63 56.6649 197.424 53.4298 198.58ZM30.2446 194.383H42.9156C46.2705 194.383 48.8766 193.623 50.7338 192.102C52.6509 190.52 53.6095 188.269 53.6095 185.35C53.6095 182.491 52.6509 180.27 50.7338 178.689C48.8766 177.046 46.2705 176.225 42.9156 176.225H30.2446V194.383ZM44.0838 222.669C47.5586 222.669 50.2845 221.817 52.2615 220.114C54.2385 218.411 55.2271 216.039 55.2271 212.997C55.2271 209.895 54.1786 207.431 52.0818 205.606C49.9849 203.781 47.1991 202.869 43.7244 202.869H30.2446V222.669H44.0838Z" fill="#232323"/>
<path d="M121.986 204.785C121.986 206.671 121.866 208.374 121.627 209.895H83.7936C84.0931 213.909 85.5609 217.133 88.197 219.567C90.833 222 94.0681 223.217 97.9024 223.217C103.414 223.217 107.308 220.875 109.585 216.191H120.638C119.14 220.814 116.415 224.616 112.461 227.596C108.566 230.516 103.714 231.976 97.9024 231.976C93.1695 231.976 88.9159 230.912 85.1416 228.783C81.4271 226.593 78.4916 223.551 76.3348 219.658C74.2379 215.704 73.1895 211.142 73.1895 205.971C73.1895 200.801 74.208 196.269 76.2449 192.376C78.3418 188.422 81.2474 185.38 84.9618 183.251C88.7362 181.122 93.0497 180.057 97.9024 180.057C102.575 180.057 106.739 181.092 110.394 183.16C114.048 185.228 116.894 188.148 118.931 191.919C120.968 195.63 121.986 199.919 121.986 204.785ZM111.292 201.5C111.232 197.668 109.884 194.596 107.248 192.284C104.612 189.973 101.347 188.817 97.4531 188.817C93.9184 188.817 90.8929 189.973 88.3767 192.284C85.8605 194.535 84.3627 197.607 83.8835 201.5H111.292Z" fill="#232323"/>
<path d="M157.05 180.057C160.945 180.057 164.419 180.879 167.475 182.521C170.59 184.163 173.016 186.597 174.754 189.821C176.491 193.045 177.36 196.938 177.36 201.5V231.155H167.205V203.051C167.205 198.55 166.097 195.113 163.88 192.741C161.663 190.307 158.638 189.091 154.804 189.091C150.97 189.091 147.914 190.307 145.638 192.741C143.421 195.113 142.313 198.55 142.313 203.051V231.155H132.068V180.879H142.313V186.627C143.99 184.559 146.117 182.947 148.693 181.791C151.329 180.635 154.115 180.057 157.05 180.057Z" fill="#232323"/>
<path d="M187.013 205.971C187.013 200.801 188.031 196.269 190.068 192.376C192.165 188.422 195.041 185.38 198.695 183.251C202.35 181.122 206.543 180.057 211.276 180.057C217.267 180.057 222.21 181.517 226.104 184.437C230.058 187.296 232.724 191.402 234.102 196.755H223.048C222.15 194.261 220.712 192.315 218.735 190.916C216.758 189.517 214.272 188.817 211.276 188.817C207.082 188.817 203.728 190.338 201.211 193.379C198.755 196.36 197.527 200.557 197.527 205.971C197.527 211.385 198.755 215.613 201.211 218.654C203.728 221.696 207.082 223.217 211.276 223.217C217.207 223.217 221.131 220.57 223.048 215.278H234.102C232.664 220.388 229.968 224.464 226.014 227.505C222.06 230.486 217.147 231.976 211.276 231.976C206.543 231.976 202.35 230.912 198.695 228.783C195.041 226.593 192.165 223.551 190.068 219.658C188.031 215.704 187.013 211.142 187.013 205.971Z" fill="#232323"/>
<path d="M269.923 180.057C273.697 180.057 277.052 180.879 279.988 182.521C282.983 184.163 285.32 186.597 286.997 189.821C288.735 193.045 289.603 196.938 289.603 201.5V231.155H279.449V203.051C279.449 198.55 278.34 195.113 276.124 192.741C273.907 190.307 270.881 189.091 267.047 189.091C263.213 189.091 260.158 190.307 257.881 192.741C255.664 195.113 254.556 198.55 254.556 203.051V231.155H244.311V163.633H254.556V186.718C256.293 184.589 258.48 182.947 261.116 181.791C263.812 180.635 266.748 180.057 269.923 180.057Z" fill="#232323"/>
<path d="M362.611 180.057C366.505 180.057 369.98 180.879 373.035 182.521C376.151 184.163 378.577 186.597 380.314 189.821C382.112 193.045 383.01 196.938 383.01 201.5V231.155H372.855V203.051C372.855 198.55 371.747 195.113 369.53 192.741C367.314 190.307 364.288 189.091 360.454 189.091C356.62 189.091 353.564 190.307 351.288 192.741C349.071 195.113 347.963 198.55 347.963 203.051V231.155H337.808V203.051C337.808 198.55 336.7 195.113 334.483 192.741C332.266 190.307 329.241 189.091 325.407 189.091C321.573 189.091 318.517 190.307 316.241 192.741C314.024 195.113 312.916 198.55 312.916 203.051V231.155H302.671V180.879H312.916V186.627C314.593 184.559 316.72 182.947 319.296 181.791C321.872 180.635 324.628 180.057 327.564 180.057C331.518 180.057 335.052 180.909 338.168 182.612C341.283 184.316 343.679 186.779 345.357 190.003C346.855 186.962 349.191 184.559 352.366 182.795C355.541 180.97 358.956 180.057 362.611 180.057Z" fill="#232323"/>
<path d="M392.631 205.789C392.631 200.74 393.65 196.269 395.687 192.376C397.784 188.482 400.599 185.471 404.134 183.342C407.729 181.152 411.683 180.057 415.996 180.057C419.89 180.057 423.275 180.848 426.151 182.43C429.087 183.951 431.423 185.867 433.16 188.178V180.879H443.495V231.155H433.16V223.673C431.423 226.045 429.057 228.022 426.061 229.604C423.066 231.185 419.651 231.976 415.817 231.976C411.563 231.976 407.669 230.881 404.134 228.691C400.599 226.441 397.784 223.338 395.687 219.384C393.65 215.369 392.631 210.838 392.631 205.789ZM433.16 205.971C433.16 202.504 432.442 199.493 431.004 196.938C429.626 194.383 427.799 192.436 425.522 191.098C423.245 189.76 420.789 189.091 418.153 189.091C415.517 189.091 413.061 189.76 410.784 191.098C408.508 192.376 406.65 194.292 405.212 196.847C403.835 199.341 403.146 202.321 403.146 205.789C403.146 209.256 403.835 212.297 405.212 214.913C406.65 217.529 408.508 219.536 410.784 220.935C413.121 222.274 415.577 222.943 418.153 222.943C420.789 222.943 423.245 222.274 425.522 220.935C427.799 219.597 429.626 217.651 431.004 215.096C432.442 212.48 433.16 209.438 433.16 205.971Z" fill="#232323"/>
<path d="M467.195 188.178C468.693 185.623 470.67 183.646 473.126 182.247C475.643 180.787 478.608 180.057 482.023 180.057V190.824H479.417C475.403 190.824 472.348 191.858 470.251 193.927C468.214 195.995 467.195 199.584 467.195 204.694V231.155H456.951V180.879H467.195V188.178Z" fill="#232323"/>
<path d="M511.031 206.062L533.856 231.155H520.017L501.685 209.53V231.155H491.44V163.633H501.685V202.869L519.658 180.879H533.856L511.031 206.062Z" fill="#232323"/>
<circle cx="498.084" cy="70.6364" r="35.9699" transform="rotate(-39.5168 498.084 70.6364)" fill="#00ADFF"/>
<circle cx="421.001" cy="116.078" r="28.2621" transform="rotate(-22.895 421.001 116.078)" fill="#FFA420"/>
<circle cx="350.141" cy="137.68" r="20.5543" transform="rotate(-10.443 350.141 137.68)" fill="#2FC861"/>
<circle cx="288.747" cy="143.079" r="15.4157" fill="#EA4E38"/>
</svg>
